<svg width="131" height="40" viewBox="0 0 131 40" fill="none" xmlns="http://www.w3.org/2000/svg">
<path d="M72.0167 6.56396C72.7816 6.56396 73.4092 6.79932 73.8995 7.27002C74.3899 7.72111 74.635 8.30949 74.635 9.03516C74.635 9.76083 74.3899 10.359 73.8995 10.8297C73.4092 11.3004 72.7816 11.5358 72.0167 11.5358C71.2714 11.5358 70.6438 11.3004 70.1339 10.8297C69.6436 10.359 69.3984 9.76083 69.3984 9.03516C69.3984 8.3291 69.6436 7.74072 70.1339 7.27002C70.6438 6.79932 71.2714 6.56396 72.0167 6.56396ZM69.8986 30.2168V14.0364H74.1055V30.2168H69.8986Z" fill="white"/>
<path d="M88.4795 14.0361H92.6864V30.0106C92.6864 32.4034 91.9607 34.3156 90.5094 35.7473C89.0581 37.1987 87.1164 37.9243 84.6845 37.9243C82.5859 37.9243 80.7619 37.3948 79.2125 36.3357C77.6827 35.2766 76.7708 33.737 76.4766 31.7169H80.8306C81.262 33.3644 82.5075 34.1881 84.5668 34.1881C87.1753 34.1881 88.4795 32.8349 88.4795 30.1283V27.8042C87.2243 29.4909 85.5278 30.3342 83.39 30.3342C81.2719 30.3342 79.5067 29.5497 78.0946 27.9807C76.7021 26.4117 76.0059 24.421 76.0059 22.0087C76.0059 19.5963 76.7119 17.6056 78.124 16.0366C79.5361 14.4676 81.2915 13.6831 83.39 13.6831C85.5474 13.6831 87.2439 14.5461 88.4795 16.272V14.0361ZM84.3314 26.3333C85.5278 26.3333 86.5182 25.9312 87.3027 25.1271C88.0873 24.323 88.4795 23.2835 88.4795 22.0087C88.4795 20.7535 88.0774 19.7238 87.2733 18.9197C86.4888 18.096 85.5082 17.6841 84.3314 17.6841C83.1547 17.6841 82.174 18.096 81.3895 18.9197C80.6246 19.7238 80.2422 20.7535 80.2422 22.0087C80.2422 23.2639 80.6246 24.3034 81.3895 25.1271C82.174 25.9312 83.1547 26.3333 84.3314 26.3333Z" fill="white"/>
<path d="M59.2801 22.0253C57.77 21.7115 56.554 21.3977 55.6322 21.0839C54.7104 20.77 53.8671 20.368 53.1022 19.8777C52.3373 19.407 51.7979 18.8186 51.4841 18.1125C51.1507 17.4065 50.984 16.5533 50.984 15.5531C50.984 14.4156 51.2292 13.4055 51.7195 12.5229C52.1902 11.66 52.8276 10.9931 53.6317 10.5224C54.4162 10.0517 55.2497 9.69871 56.1323 9.46336C56.9953 9.22801 57.8876 9.11033 58.8094 9.11033C61.6141 9.11033 63.7518 9.76735 65.2228 11.0814C66.6741 12.4151 67.5273 14.0821 67.7822 16.0826L63.5459 16.0826C63.2517 15.0235 62.7516 14.2488 62.0455 13.7585C61.3199 13.2682 60.251 13.0231 58.8389 13.0231C57.6621 13.0231 56.7697 13.229 56.1617 13.6409C55.5341 14.0527 55.2203 14.6313 55.2203 15.3766C55.2203 15.8473 55.3968 16.2199 55.7499 16.4945C56.0833 16.7887 56.4951 17.0044 56.9855 17.1417C57.4758 17.279 58.3485 17.4849 59.6038 17.7595C59.7018 17.7791 59.7803 17.7889 59.8391 17.7889C59.8783 17.8085 59.947 17.8282 60.045 17.8478C60.1235 17.8674 60.2019 17.887 60.2804 17.9066C61.3395 18.1223 62.2318 18.3577 62.9575 18.6127C63.6832 18.8676 64.399 19.2207 65.1051 19.6717C65.8112 20.1228 66.3505 20.7014 66.7231 21.4075C67.0762 22.1135 67.2527 22.9569 67.2527 23.9375C67.2527 25.9772 66.4878 27.5658 64.958 28.7034C63.4282 29.8409 61.6042 30.4097 59.4861 30.4097C56.8972 30.4097 54.9359 29.8115 53.6023 28.6151C52.249 27.4384 51.4449 25.9086 51.1899 24.0258L55.4557 24.0258C55.9656 25.6732 57.2993 26.4969 59.4567 26.4969C60.653 26.4969 61.5454 26.2714 62.1338 25.8203C62.7222 25.3888 63.0164 24.8201 63.0164 24.114C63.0164 23.5452 62.7712 23.1334 62.2809 22.8784C61.771 22.6234 60.7707 22.3391 59.2801 22.0253Z" fill="white"/>
<path fill-rule="evenodd" clip-rule="evenodd" d="M111.324 15.3313C110.285 14.1938 108.853 13.625 107.029 13.625C104.953 13.625 103.313 14.4291 102.106 16.0372V14.0293H101.998V13.978H97.7913V14.0293H94.6348V17.7648H97.7913V30.1585H101.998V21.6564C101.998 18.9694 103.214 17.626 105.646 17.626C106.725 17.626 107.5 17.9006 107.97 18.4497C108.441 18.9989 108.676 19.8226 108.676 20.9209V30.1585H112.883V20.0089C112.883 18.028 112.363 16.4688 111.324 15.3313Z" fill="white"/>
<path fill-rule="evenodd" clip-rule="evenodd" d="M130.216 14.0361H126.009V22.5382C126.009 23.8523 125.696 24.8525 125.068 25.5389C124.46 26.2254 123.577 26.5686 122.42 26.5686C121.361 26.5686 120.596 26.294 120.126 25.7449C119.674 25.1957 119.449 24.372 119.449 23.2737V14.0361H115.242V24.1857C115.242 26.1469 115.752 27.7061 116.772 28.8633C117.811 30.0008 119.223 30.5696 121.008 30.5696C123.107 30.5696 124.774 29.7066 126.009 27.9807V30.2166H126.01V30.6243C126.01 31.8426 125.728 32.7254 125.17 33.3042C124.613 33.8819 123.766 34.1851 122.595 34.1851C121.671 34.1851 120.948 34 120.412 33.6455C119.879 33.2932 119.515 32.7632 119.326 32.0406L119.294 31.9164H114.976L115.003 32.1068C115.279 34.0021 116.139 35.4587 117.585 36.46L117.586 36.4605C119.039 37.454 120.747 37.948 122.703 37.948C124.971 37.948 126.799 37.2701 128.168 35.901C129.538 34.5499 130.216 32.7489 130.216 30.5163V30.2166H130.216V14.0361Z" fill="white"/>
<rect width="40" height="40" rx="9.92226" fill="#1064E5"/>
<path fill-rule="evenodd" clip-rule="evenodd" d="M31.0667 31.479C28.2424 34.0679 24.6631 35.3624 20.3287 35.3624C15.7394 35.3624 11.9738 33.9306 9.03186 31.0672C6.10957 28.2233 4.64843 24.5166 4.64843 19.9468C4.64843 15.3967 6.07035 11.7095 8.91418 8.88527C11.7776 6.06105 15.4648 4.64894 19.9757 4.64894C22.29 4.64894 24.3788 5.0412 26.242 5.8257L25.5065 9.26772C23.9375 8.54206 22.1331 8.17922 20.0934 8.17922C16.622 8.17922 13.8075 9.2285 11.6501 11.3271C9.51237 13.4256 8.44348 16.3087 8.44348 19.9762C8.44348 23.6242 9.54179 26.5072 11.7384 28.6254C13.9546 30.7632 16.8475 31.8321 20.417 31.8321C21.986 31.8321 23.4177 31.6065 24.7122 31.1554C26.0262 30.724 27.1932 30.0571 28.213 29.1549C29.2525 28.2724 30.0566 27.0858 30.6254 25.5953C30.9247 24.837 31.1478 24.0179 31.2949 23.138C31.4737 21.4493 31.5843 19.7435 31.2914 18.4199C31.1341 17.7086 30.895 17.2879 30.6454 17.0476C30.4329 16.8433 30.0591 16.6179 29.2659 16.6024C27.8583 16.5749 26.2888 17.4675 24.6887 19.1422C23.1379 20.7653 21.832 22.8287 21.0312 24.3822C20.7194 24.987 20.5038 25.4851 20.5038 25.4851L20.4211 25.4016L20.4209 25.4021L14.0415 18.9835L16.7417 16.2833L19.7283 19.2047C20.3771 18.2843 21.1144 17.3555 21.9277 16.5042C23.7639 14.5825 26.3067 12.7254 29.3404 12.7845C30.9306 12.8156 32.2776 13.319 33.293 14.296C34.271 15.237 34.7665 16.45 35.0198 17.595C35.2195 18.4973 35.2898 19.4665 35.2896 20.4175H35.303V20.9176C35.303 22.0604 35.21 23.1418 35.0239 24.1618L35.0188 24.2066L35.0157 24.2063C34.4718 27.1401 33.1554 29.5644 31.0667 31.479Z" fill="white"/>
</svg>
